<svg t="1648617240855" class="icon" viewBox="0 0 1024 1024" version="1.1" xmlns="http://www.w3.org/2000/svg" p-id="1400" data-darkreader-inline-fill="" width="200" height="200"><path d="M310.30303 563.2c0 129.810101 104.985859 234.79596 234.79596 234.79596 129.810101 0 234.79596-104.985859 234.795959-234.79596 0-129.810101-104.985859-234.79596-234.795959-234.79596-129.810101 0-234.79596 105.50303-234.79596 234.79596z m0 0" fill="#FF7C1A" p-id="1401" data-darkreader-inline-fill="" style="--darkreader-inline-fill:#bc5100;"></path><path d="M545.09899 811.959596c-137.050505 0-248.242424-111.191919-248.242424-248.242424s111.191919-248.242424 248.242424-248.242425 248.242424 111.191919 248.242424 248.242425c0 136.533333-111.191919 248.242424-248.242424 248.242424z m0-469.591919c-122.052525 0-220.832323 99.29697-220.832323 220.832323 0 122.052525 99.29697 220.832323 220.832323 220.832323s220.832323-99.29697 220.832323-220.832323c0.517172-122.052525-98.779798-220.832323-220.832323-220.832323z m0 0" fill="#FF601A" p-id="1402" data-darkreader-inline-fill="" style="--darkreader-inline-fill:#bc3a00;"></path><path d="M647.49899 656.808081c0 4.137374 3.620202 7.757576 7.757576 7.757576s7.757576-3.620202 7.757575-7.757576-3.620202-7.757576-7.757575-7.757576-7.757576 3.620202-7.757576 7.757576z m0 0M438.561616 420.977778c0 4.137374 3.620202 7.757576 7.757576 7.757576s7.757576-3.620202 7.757576-7.757576-3.620202-7.757576-7.757576-7.757576c-4.654545 0-7.757576 3.620202-7.757576 7.757576z m0 0M616.468687 578.715152c0 2.585859 1.551515 5.171717 4.137374 6.723232 2.585859 1.551515 5.171717 1.551515 7.757575 0s4.137374-4.137374 4.137374-6.723232-1.551515-5.171717-4.137374-6.723233c-2.585859-1.551515-5.171717-1.551515-7.757575 0s-4.137374 4.137374-4.137374 6.723233z m0 0M540.961616 670.254545c0 2.585859 1.551515 5.171717 4.137374 6.723233 2.585859 1.551515 5.171717 1.551515 7.757576 0s4.137374-4.137374 4.137373-6.723233-1.551515-5.171717-4.137373-6.723232c-2.585859-1.551515-5.171717-1.551515-7.757576 0-3.10303 1.034343-4.137374 3.620202-4.137374 6.723232z m0 0M631.983838 400.808081c0 4.137374 3.620202 7.757576 7.757576 7.757576s7.757576-3.620202 7.757576-7.757576-3.620202-7.757576-7.757576-7.757576-7.757576 3.620202-7.757576 7.757576z m0 0M678.529293 638.707071c0 4.137374 3.620202 7.757576 7.757576 7.757575s7.757576-3.620202 7.757575-7.757575-3.620202-7.757576-7.757575-7.757576-7.757576 3.620202-7.757576 7.757576z m0 0M620.606061 676.977778c0 4.137374 3.620202 7.757576 7.757575 7.757576s7.757576-3.620202 7.757576-7.757576-3.620202-7.757576-7.757576-7.757576-7.757576 3.10303-7.757575 7.757576z m0 0M614.4 712.145455c0 4.137374 3.620202 7.757576 7.757576 7.757575s7.757576-3.620202 7.757576-7.757575-3.620202-7.757576-7.757576-7.757576c-4.654545 0-7.757576 3.620202-7.757576 7.757576z m0 0M589.575758 750.416162c0 2.585859 1.551515 5.171717 4.137373 6.723232 2.585859 1.551515 5.171717 1.551515 7.757576 0s4.137374-4.137374 4.137374-6.723232-1.551515-5.171717-4.137374-6.723233c-2.585859-1.551515-5.171717-1.551515-7.757576 0-2.585859 1.034343-4.137374 3.620202-4.137373 6.723233z m0 0M411.668687 692.492929c0 4.137374 3.620202 7.757576 7.757576 7.757576s7.757576-3.620202 7.757575-7.757576-3.620202-7.757576-7.757575-7.757575-7.757576 3.10303-7.757576 7.757575z m0 0M545.09899 710.076768c0 2.585859 1.551515 5.171717 4.137374 6.723232 2.585859 1.551515 5.171717 1.551515 7.757575 0s4.137374-4.137374 4.137374-6.723232-1.551515-5.171717-4.137374-6.723233c-2.585859-1.551515-5.171717-1.551515-7.757575 0s-4.137374 4.137374-4.137374 6.723233z m0 0M671.806061 710.076768c0 2.585859 1.551515 5.171717 4.137373 6.723232 2.585859 1.551515 5.171717 1.551515 7.757576 0s4.137374-4.137374 4.137374-6.723232-1.551515-5.171717-4.137374-6.723233c-2.585859-1.551515-5.171717-1.551515-7.757576 0s-4.137374 4.137374-4.137373 6.723233z m0 0M683.183838 674.391919c0 4.137374 3.620202 7.757576 7.757576 7.757576s7.757576-3.620202 7.757576-7.757576-3.620202-7.757576-7.757576-7.757576-7.757576 3.620202-7.757576 7.757576z m0 0M732.315152 621.123232c0 4.137374 3.620202 7.757576 7.757575 7.757576s7.757576-3.620202 7.757576-7.757576-3.620202-7.757576-7.757576-7.757575-7.757576 3.620202-7.757575 7.757575z m0 0M563.2 724.040404c0 4.137374 3.620202 7.757576 7.757576 7.757576s7.757576-3.620202 7.757576-7.757576-3.620202-7.757576-7.757576-7.757576-7.757576 3.620202-7.757576 7.757576z m0 0M483.038384 710.076768c0 2.585859 1.551515 5.171717 4.137374 6.723232 2.585859 1.551515 5.171717 1.551515 7.757575 0s4.137374-4.137374 4.137374-6.723232-1.551515-5.171717-4.137374-6.723233c-2.585859-1.551515-5.171717-1.551515-7.757575 0s-4.137374 4.137374-4.137374 6.723233z m0 0M598.367677 643.361616c0 4.137374 3.620202 7.757576 7.757576 7.757576s7.757576-3.620202 7.757575-7.757576-3.620202-7.757576-7.757575-7.757576-7.757576 3.620202-7.757576 7.757576z m0 0M678.529293 549.753535c0 4.137374 3.620202 7.757576 7.757576 7.757576s7.757576-3.620202 7.757575-7.757576-3.620202-7.757576-7.757575-7.757575-7.757576 3.620202-7.757576 7.757575z m0 0M553.890909 369.777778c0 4.137374 3.620202 7.757576 7.757576 7.757576s7.757576-3.620202 7.757576-7.757576-3.620202-7.757576-7.757576-7.757576-7.757576 3.620202-7.757576 7.757576z m0 0M683.183838 594.230303c0 4.137374 3.620202 7.757576 7.757576 7.757576s7.757576-3.620202 7.757576-7.757576-3.620202-7.757576-7.757576-7.757576-7.757576 3.620202-7.757576 7.757576z m0 0M730.763636 489.761616c0 2.585859 1.551515 5.171717 4.137374 6.723232 2.585859 1.551515 5.171717 1.551515 7.757576 0s4.137374-4.137374 4.137374-6.723232-1.551515-5.171717-4.137374-6.723232c-2.585859-1.551515-5.171717-1.551515-7.757576 0s-4.137374 4.137374-4.137374 6.723232z m0 0" fill="#FF661A" p-id="1403" data-darkreader-inline-fill="" style="--darkreader-inline-fill:#bc3f00;"></path><path d="M374.949495 373.915152c-48.614141 0-93.608081-24.307071-121.018182-65.163637-3.10303-4.137374-3.10303-9.826263-0.517172-14.480808 25.341414-43.442424 70.852525-70.852525 121.018182-72.40404 50.165657-1.551515 97.228283 22.755556 125.155556 64.646464 3.10303 4.137374 3.10303 9.826263 0.517172 14.480808-25.341414 43.442424-70.852525 70.852525-121.018182 72.404041-1.034343 0.517172-2.585859 0.517172-4.137374 0.517172z" fill="#60B71C" p-id="1404" data-darkreader-inline-fill="" style="--darkreader-inline-fill:#4d9216;"></path><path d="M512 396.153535c-6.206061 0-11.894949-4.654545-13.446465-10.860606l-21.20404-99.296969c-0.517172-1.551515-0.517172-3.620202 0-5.171718l13.963636-77.058585c0.517172-3.620202 2.585859-6.723232 5.688889-8.79192 3.10303-2.068687 6.723232-3.10303 10.343435-2.068686 3.620202 0.517172 6.723232 2.585859 8.791919 5.688888 2.068687 3.10303 3.10303 6.723232 2.068687 10.343435l-13.446465 74.472727 20.686869 96.711111c0.517172 3.620202 0 7.240404-2.068687 10.343434-2.068687 3.10303-5.171717 5.171717-8.791919 5.688889-0.517172-0.517172-1.551515 0-2.585859 0z m0 0" fill="#167203" p-id="1405" data-darkreader-inline-fill="" style="--darkreader-inline-fill:#93fc7e;"></path><path d="M472.177778 379.086869c0-16.032323 8.791919-32.581818 22.238384-35.684849l23.272727-4.137374c13.446465-3.10303 28.961616 6.206061 36.719192 24.307071 3.620202 16.549495 9.826263 28.444444-19.135354 35.167677l-23.272727 4.654545c-34.650505 7.240404-39.822222-8.791919-39.822222-24.30707z m0 0" fill="#167203" p-id="1406" data-darkreader-inline-fill="" style="--darkreader-inline-fill:#93fc7e;"></path><path d="M719.385859 647.49899c-1.551515 0-3.10303-0.517172-4.654546-1.034344-7.240404-2.585859-10.860606-10.343434-8.274747-17.583838 1.551515-4.137374 33.616162-98.779798-39.822223-180.492929-5.171717-5.688889-4.654545-14.480808 1.034344-19.135354 5.688889-5.171717 14.480808-4.654545 19.135353 1.034344 84.29899 94.125253 47.062626 203.248485 45.511112 207.90303-1.551515 5.688889-6.723232 9.309091-12.929293 9.309091z m0 0M624.743434 405.462626c0 9.309091 7.757576 17.066667 17.066667 17.066667 9.309091 0 17.066667-7.757576 17.066667-17.066667 0-9.309091-7.757576-17.066667-17.066667-17.066666-9.309091 0-17.066667 7.757576-17.066667 17.066666z m0 0" fill="#FFFFFF" p-id="1407" data-darkreader-inline-fill="" style="--darkreader-inline-fill:#181a1b;"></path></svg>